<svg xmlns="http://www.w3.org/2000/svg" width="920" height="250" viewBox="0 0 920 250" role="img" aria-label="Combined GitHub and GitLab engineering activity">
<style>
.title{font:700 21px -apple-system,BlinkMacSystemFont,Segoe UI,sans-serif;fill:#f0f6fc}
.subtitle{font:500 12px -apple-system,BlinkMacSystemFont,Segoe UI,sans-serif;fill:#8b949e}
.stat{font:700 17px -apple-system,BlinkMacSystemFont,Segoe UI,sans-serif;fill:#f0f6fc}
.statlabel,.month,.day,.muted{font:500 10px -apple-system,BlinkMacSystemFont,Segoe UI,sans-serif;fill:#8b949e}
</style>
<rect width="100%" height="100%" rx="14" fill="#161b22" stroke="#30363d"/>
<text x="24" y="34" class="title">Engineering Activity</text>
<text x="24" y="54" class="subtitle">GitHub + GitLab · combined daily activity</text>
<text x="530" y="34" class="stat">174</text><text x="530" y="51" class="statlabel">activity</text>
<text x="625" y="34" class="stat">57</text><text x="625" y="51" class="statlabel">active days</text>
<text x="720" y="34" class="stat">2</text><text x="720" y="51" class="statlabel">current streak</text>
<text x="815" y="34" class="stat">12</text><text x="815" y="51" class="statlabel">best streak</text>
<text x="54" y="78" class="month">Sep</text><text x="110" y="78" class="month">Oct</text><text x="166" y="78" class="month">Nov</text><text x="236" y="78" class="month">Dec</text><text x="292" y="78" class="month">Jan</text><text x="362" y="78" class="month">Feb</text><text x="418" y="78" class="month">Mar</text><text x="474" y="78" class="month">Apr</text><text x="530" y="78" class="month">May</text><text x="600" y="78" class="month">Jun</text><text x="656" y="78" class="month">Jul</text><text x="712" y="78" class="month">Aug</text><text x="782" y="78" class="month">Sep</text><text x="8" y="115" class="day">Mon</text><text x="8" y="143" class="day">Wed</text><text x="8" y="171" class="day">Fri</text><rect x="54" y="92" width="11" height="11" rx="2" fill="#21262d"><title>2025-08-31: 0 activity</title></rect><rect x="54" y="106" width="11" height="11" rx="2" fill="#21262d"><title>2025-09-01: 0 activity</title></rect><rect x="54" y="120" width="11" height="11" rx="2" fill="#21262d"><title>2025-09-02: 0 activity</title></rect><rect x="54" y="134" width="11" height="11" rx="2" fill="#21262d"><title>2025-09-03: 0 activity</title></rect><rect x="54" y="148" width="11" height="11" rx="2" fill="#21262d"><title>2025-09-04: 0 activity</title></rect><rect x="54" y="162" width="11" height="11" rx="2" fill="#21262d"><title>2025-09-05: 0 activity</title></rect><rect x="54" y="176" width="11" height="11" rx="2" fill="#26a641"><title>2025-09-06: 7 activity</title></rect><rect x="68" y="92" width="11" height="11" rx="2" fill="#006d32"><title>2025-09-07: 5 activity</title></rect><rect x="68" y="106" width="11" height="11" rx="2" fill="#0e4429"><title>2025-09-08: 1 activity</title></rect><rect x="68" y="120" width="11" height="11" rx="2" fill="#21262d"><title>2025-09-09: 0 activity</title></rect><rect x="68" y="134" width="11" height="11" rx="2" fill="#21262d"><title>2025-09-10: 0 activity</title></rect><rect x="68" y="148" width="11" height="11" rx="2" fill="#21262d"><title>2025-09-11: 0 activity</title></rect><rect x="68" y="162" width="11" height="11" rx="2" fill="#21262d"><title>2025-09-12: 0 activity</title></rect><rect x="68" y="176" width="11" height="11" rx="2" fill="#21262d"><title>2025-09-13: 0 activity</title></rect><rect x="82" y="92" width="11" height="11" rx="2" fill="#21262d"><title>2025-09-14: 0 activity</title></rect><rect x="82" y="106" width="11" height="11" rx="2" fill="#21262d"><title>2025-09-15: 0 activity</title></rect><rect x="82" y="120" width="11" height="11" rx="2" fill="#0e4429"><title>2025-09-16: 2 activity</title></rect><rect x="82" y="134" width="11" height="11" rx="2" fill="#21262d"><title>2025-09-17: 0 activity</title></rect><rect x="82" y="148" width="11" height="11" rx="2" fill="#21262d"><title>2025-09-18: 0 activity</title></rect><rect x="82" y="162" width="11" height="11" rx="2" fill="#21262d"><title>2025-09-19: 0 activity</title></rect><rect x="82" y="176" width="11" height="11" rx="2" fill="#21262d"><title>2025-09-20: 0 activity</title></rect><rect x="96" y="92" width="11" height="11" rx="2" fill="#21262d"><title>2025-09-21: 0 activity</title></rect><rect x="96" y="106" width="11" height="11" rx="2" fill="#0e4429"><title>2025-09-22: 1 activity</title></rect><rect x="96" y="120" width="11" height="11" rx="2" fill="#0e4429"><title>2025-09-23: 1 activity</title></rect><rect x="96" y="134" width="11" height="11" rx="2" fill="#0e4429"><title>2025-09-24: 2 activity</title></rect><rect x="96" y="148" width="11" height="11" rx="2" fill="#21262d"><title>2025-09-25: 0 activity</title></rect><rect x="96" y="162" width="11" height="11" rx="2" fill="#21262d"><title>2025-09-26: 0 activity</title></rect><rect x="96" y="176" width="11" height="11" rx="2" fill="#21262d"><title>2025-09-27: 0 activity</title></rect><rect x="110" y="92" width="11" height="11" rx="2" fill="#21262d"><title>2025-09-28: 0 activity</title></rect><rect x="110" y="106" width="11" height="11" rx="2" fill="#21262d"><title>2025-09-29: 0 activity</title></rect><rect x="110" y="120" width="11" height="11" rx="2" fill="#21262d"><title>2025-09-30: 0 activity</title></rect><rect x="110" y="134" width="11" height="11" rx="2" fill="#21262d"><title>2025-10-01: 0 activity</title></rect><rect x="110" y="148" width="11" height="11" rx="2" fill="#21262d"><title>2025-10-02: 0 activity</title></rect><rect x="110" y="162" width="11" height="11" rx="2" fill="#21262d"><title>2025-10-03: 0 activity</title></rect><rect x="110" y="176" width="11" height="11" rx="2" fill="#21262d"><title>2025-10-04: 0 activity</title></rect><rect x="124" y="92" width="11" height="11" rx="2" fill="#21262d"><title>2025-10-05: 0 activity</title></rect><rect x="124" y="106" width="11" height="11" rx="2" fill="#21262d"><title>2025-10-06: 0 activity</title></rect><rect x="124" y="120" width="11" height="11" rx="2" fill="#21262d"><title>2025-10-07: 0 activity</title></rect><rect x="124" y="134" width="11" height="11" rx="2" fill="#21262d"><title>2025-10-08: 0 activity</title></rect><rect x="124" y="148" width="11" height="11" rx="2" fill="#21262d"><title>2025-10-09: 0 activity</title></rect><rect x="124" y="162" width="11" height="11" rx="2" fill="#21262d"><title>2025-10-10: 0 activity</title></rect><rect x="124" y="176" width="11" height="11" rx="2" fill="#21262d"><title>2025-10-11: 0 activity</title></rect><rect x="138" y="92" width="11" height="11" rx="2" fill="#21262d"><title>2025-10-12: 0 activity</title></rect><rect x="138" y="106" width="11" height="11" rx="2" fill="#21262d"><title>2025-10-13: 0 activity</title></rect><rect x="138" y="120" width="11" height="11" rx="2" fill="#21262d"><title>2025-10-14: 0 activity</title></rect><rect x="138" y="134" width="11" height="11" rx="2" fill="#21262d"><title>2025-10-15: 0 activity</title></rect><rect x="138" y="148" width="11" height="11" rx="2" fill="#21262d"><title>2025-10-16: 0 activity</title></rect><rect x="138" y="162" width="11" height="11" rx="2" fill="#21262d"><title>2025-10-17: 0 activity</title></rect><rect x="138" y="176" width="11" height="11" rx="2" fill="#21262d"><title>2025-10-18: 0 activity</title></rect><rect x="152" y="92" width="11" height="11" rx="2" fill="#21262d"><title>2025-10-19: 0 activity</title></rect><rect x="152" y="106" width="11" height="11" rx="2" fill="#21262d"><title>2025-10-20: 0 activity</title></rect><rect x="152" y="120" width="11" height="11" rx="2" fill="#21262d"><title>2025-10-21: 0 activity</title></rect><rect x="152" y="134" width="11" height="11" rx="2" fill="#21262d"><title>2025-10-22: 0 activity</title></rect><rect x="152" y="148" width="11" height="11" rx="2" fill="#21262d"><title>2025-10-23: 0 activity</title></rect><rect x="152" y="162" width="11" height="11" rx="2" fill="#21262d"><title>2025-10-24: 0 activity</title></rect><rect x="152" y="176" width="11" height="11" rx="2" fill="#21262d"><title>2025-10-25: 0 activity</title></rect><rect x="166" y="92" width="11" height="11" rx="2" fill="#21262d"><title>2025-10-26: 0 activity</title></rect><rect x="166" y="106" width="11" height="11" rx="2" fill="#21262d"><title>2025-10-27: 0 activity</title></rect><rect x="166" y="120" width="11" height="11" rx="2" fill="#21262d"><title>2025-10-28: 0 activity</title></rect><rect x="166" y="134" width="11" height="11" rx="2" fill="#21262d"><title>2025-10-29: 0 activity</title></rect><rect x="166" y="148" width="11" height="11" rx="2" fill="#21262d"><title>2025-10-30: 0 activity</title></rect><rect x="166" y="162" width="11" height="11" rx="2" fill="#21262d"><title>2025-10-31: 0 activity</title></rect><rect x="166" y="176" width="11" height="11" rx="2" fill="#21262d"><title>2025-11-01: 0 activity</title></rect><rect x="180" y="92" width="11" height="11" rx="2" fill="#21262d"><title>2025-11-02: 0 activity</title></rect><rect x="180" y="106" width="11" height="11" rx="2" fill="#21262d"><title>2025-11-03: 0 activity</title></rect><rect x="180" y="120" width="11" height="11" rx="2" fill="#21262d"><title>2025-11-04: 0 activity</title></rect><rect x="180" y="134" width="11" height="11" rx="2" fill="#21262d"><title>2025-11-05: 0 activity</title></rect><rect x="180" y="148" width="11" height="11" rx="2" fill="#21262d"><title>2025-11-06: 0 activity</title></rect><rect x="180" y="162" width="11" height="11" rx="2" fill="#21262d"><title>2025-11-07: 0 activity</title></rect><rect x="180" y="176" width="11" height="11" rx="2" fill="#21262d"><title>2025-11-08: 0 activity</title></rect><rect x="194" y="92" width="11" height="11" rx="2" fill="#21262d"><title>2025-11-09: 0 activity</title></rect><rect x="194" y="106" width="11" height="11" rx="2" fill="#21262d"><title>2025-11-10: 0 activity</title></rect><rect x="194" y="120" width="11" height="11" rx="2" fill="#21262d"><title>2025-11-11: 0 activity</title></rect><rect x="194" y="134" width="11" height="11" rx="2" fill="#21262d"><title>2025-11-12: 0 activity</title></rect><rect x="194" y="148" width="11" height="11" rx="2" fill="#21262d"><title>2025-11-13: 0 activity</title></rect><rect x="194" y="162" width="11" height="11" rx="2" fill="#0e4429"><title>2025-11-14: 2 activity</title></rect><rect x="194" y="176" width="11" height="11" rx="2" fill="#21262d"><title>2025-11-15: 0 activity</title></rect><rect x="208" y="92" width="11" height="11" rx="2" fill="#21262d"><title>2025-11-16: 0 activity</title></rect><rect x="208" y="106" width="11" height="11" rx="2" fill="#21262d"><title>2025-11-17: 0 activity</title></rect><rect x="208" y="120" width="11" height="11" rx="2" fill="#21262d"><title>2025-11-18: 0 activity</title></rect><rect x="208" y="134" width="11" height="11" rx="2" fill="#21262d"><title>2025-11-19: 0 activity</title></rect><rect x="208" y="148" width="11" height="11" rx="2" fill="#21262d"><title>2025-11-20: 0 activity</title></rect><rect x="208" y="162" width="11" height="11" rx="2" fill="#21262d"><title>2025-11-21: 0 activity</title></rect><rect x="208" y="176" width="11" height="11" rx="2" fill="#21262d"><title>2025-11-22: 0 activity</title></rect><rect x="222" y="92" width="11" height="11" rx="2" fill="#21262d"><title>2025-11-23: 0 activity</title></rect><rect x="222" y="106" width="11" height="11" rx="2" fill="#21262d"><title>2025-11-24: 0 activity</title></rect><rect x="222" y="120" width="11" height="11" rx="2" fill="#21262d"><title>2025-11-25: 0 activity</title></rect><rect x="222" y="134" width="11" height="11" rx="2" fill="#21262d"><title>2025-11-26: 0 activity</title></rect><rect x="222" y="148" width="11" height="11" rx="2" fill="#21262d"><title>2025-11-27: 0 activity</title></rect><rect x="222" y="162" width="11" height="11" rx="2" fill="#21262d"><title>2025-11-28: 0 activity</title></rect><rect x="222" y="176" width="11" height="11" rx="2" fill="#21262d"><title>2025-11-29: 0 activity</title></rect><rect x="236" y="92" width="11" height="11" rx="2" fill="#21262d"><title>2025-11-30: 0 activity</title></rect><rect x="236" y="106" width="11" height="11" rx="2" fill="#0e4429"><title>2025-12-01: 2 activity</title></rect><rect x="236" y="120" width="11" height="11" rx="2" fill="#21262d"><title>2025-12-02: 0 activity</title></rect><rect x="236" y="134" width="11" height="11" rx="2" fill="#21262d"><title>2025-12-03: 0 activity</title></rect><rect x="236" y="148" width="11" height="11" rx="2" fill="#21262d"><title>2025-12-04: 0 activity</title></rect><rect x="236" y="162" width="11" height="11" rx="2" fill="#21262d"><title>2025-12-05: 0 activity</title></rect><rect x="236" y="176" width="11" height="11" rx="2" fill="#21262d"><title>2025-12-06: 0 activity</title></rect><rect x="250" y="92" width="11" height="11" rx="2" fill="#21262d"><title>2025-12-07: 0 activity</title></rect><rect x="250" y="106" width="11" height="11" rx="2" fill="#21262d"><title>2025-12-08: 0 activity</title></rect><rect x="250" y="120" width="11" height="11" rx="2" fill="#21262d"><title>2025-12-09: 0 activity</title></rect><rect x="250" y="134" width="11" height="11" rx="2" fill="#26a641"><title>2025-12-10: 7 activity</title></rect><rect x="250" y="148" width="11" height="11" rx="2" fill="#21262d"><title>2025-12-11: 0 activity</title></rect><rect x="250" y="162" width="11" height="11" rx="2" fill="#21262d"><title>2025-12-12: 0 activity</title></rect><rect x="250" y="176" width="11" height="11" rx="2" fill="#21262d"><title>2025-12-13: 0 activity</title></rect><rect x="264" y="92" width="11" height="11" rx="2" fill="#21262d"><title>2025-12-14: 0 activity</title></rect><rect x="264" y="106" width="11" height="11" rx="2" fill="#21262d"><title>2025-12-15: 0 activity</title></rect><rect x="264" y="120" width="11" height="11" rx="2" fill="#21262d"><title>2025-12-16: 0 activity</title></rect><rect x="264" y="134" width="11" height="11" rx="2" fill="#21262d"><title>2025-12-17: 0 activity</title></rect><rect x="264" y="148" width="11" height="11" rx="2" fill="#21262d"><title>2025-12-18: 0 activity</title></rect><rect x="264" y="162" width="11" height="11" rx="2" fill="#006d32"><title>2025-12-19: 3 activity</title></rect><rect x="264" y="176" width="11" height="11" rx="2" fill="#21262d"><title>2025-12-20: 0 activity</title></rect><rect x="278" y="92" width="11" height="11" rx="2" fill="#21262d"><title>2025-12-21: 0 activity</title></rect><rect x="278" y="106" width="11" height="11" rx="2" fill="#21262d"><title>2025-12-22: 0 activity</title></rect><rect x="278" y="120" width="11" height="11" rx="2" fill="#21262d"><title>2025-12-23: 0 activity</title></rect><rect x="278" y="134" width="11" height="11" rx="2" fill="#21262d"><title>2025-12-24: 0 activity</title></rect><rect x="278" y="148" width="11" height="11" rx="2" fill="#21262d"><title>2025-12-25: 0 activity</title></rect><rect x="278" y="162" width="11" height="11" rx="2" fill="#21262d"><title>2025-12-26: 0 activity</title></rect><rect x="278" y="176" width="11" height="11" rx="2" fill="#21262d"><title>2025-12-27: 0 activity</title></rect><rect x="292" y="92" width="11" height="11" rx="2" fill="#21262d"><title>2025-12-28: 0 activity</title></rect><rect x="292" y="106" width="11" height="11" rx="2" fill="#21262d"><title>2025-12-29: 0 activity</title></rect><rect x="292" y="120" width="11" height="11" rx="2" fill="#21262d"><title>2025-12-30: 0 activity</title></rect><rect x="292" y="134" width="11" height="11" rx="2" fill="#21262d"><title>2025-12-31: 0 activity</title></rect><rect x="292" y="148" width="11" height="11" rx="2" fill="#21262d"><title>2026-01-01: 0 activity</title></rect><rect x="292" y="162" width="11" height="11" rx="2" fill="#21262d"><title>2026-01-02: 0 activity</title></rect><rect x="292" y="176" width="11" height="11" rx="2" fill="#21262d"><title>2026-01-03: 0 activity</title></rect><rect x="306" y="92" width="11" height="11" rx="2" fill="#21262d"><title>2026-01-04: 0 activity</title></rect><rect x="306" y="106" width="11" height="11" rx="2" fill="#21262d"><title>2026-01-05: 0 activity</title></rect><rect x="306" y="120" width="11" height="11" rx="2" fill="#21262d"><title>2026-01-06: 0 activity</title></rect><rect x="306" y="134" width="11" height="11" rx="2" fill="#21262d"><title>2026-01-07: 0 activity</title></rect><rect x="306" y="148" width="11" height="11" rx="2" fill="#21262d"><title>2026-01-08: 0 activity</title></rect><rect x="306" y="162" width="11" height="11" rx="2" fill="#21262d"><title>2026-01-09: 0 activity</title></rect><rect x="306" y="176" width="11" height="11" rx="2" fill="#21262d"><title>2026-01-10: 0 activity</title></rect><rect x="320" y="92" width="11" height="11" rx="2" fill="#21262d"><title>2026-01-11: 0 activity</title></rect><rect x="320" y="106" width="11" height="11" rx="2" fill="#21262d"><title>2026-01-12: 0 activity</title></rect><rect x="320" y="120" width="11" height="11" rx="2" fill="#39d353"><title>2026-01-13: 12 activity</title></rect><rect x="320" y="134" width="11" height="11" rx="2" fill="#0e4429"><title>2026-01-14: 1 activity</title></rect><rect x="320" y="148" width="11" height="11" rx="2" fill="#21262d"><title>2026-01-15: 0 activity</title></rect><rect x="320" y="162" width="11" height="11" rx="2" fill="#21262d"><title>2026-01-16: 0 activity</title></rect><rect x="320" y="176" width="11" height="11" rx="2" fill="#21262d"><title>2026-01-17: 0 activity</title></rect><rect x="334" y="92" width="11" height="11" rx="2" fill="#21262d"><title>2026-01-18: 0 activity</title></rect><rect x="334" y="106" width="11" height="11" rx="2" fill="#21262d"><title>2026-01-19: 0 activity</title></rect><rect x="334" y="120" width="11" height="11" rx="2" fill="#21262d"><title>2026-01-20: 0 activity</title></rect><rect x="334" y="134" width="11" height="11" rx="2" fill="#21262d"><title>2026-01-21: 0 activity</title></rect><rect x="334" y="148" width="11" height="11" rx="2" fill="#21262d"><title>2026-01-22: 0 activity</title></rect><rect x="334" y="162" width="11" height="11" rx="2" fill="#21262d"><title>2026-01-23: 0 activity</title></rect><rect x="334" y="176" width="11" height="11" rx="2" fill="#21262d"><title>2026-01-24: 0 activity</title></rect><rect x="348" y="92" width="11" height="11" rx="2" fill="#21262d"><title>2026-01-25: 0 activity</title></rect><rect x="348" y="106" width="11" height="11" rx="2" fill="#21262d"><title>2026-01-26: 0 activity</title></rect><rect x="348" y="120" width="11" height="11" rx="2" fill="#21262d"><title>2026-01-27: 0 activity</title></rect><rect x="348" y="134" width="11" height="11" rx="2" fill="#21262d"><title>2026-01-28: 0 activity</title></rect><rect x="348" y="148" width="11" height="11" rx="2" fill="#21262d"><title>2026-01-29: 0 activity</title></rect><rect x="348" y="162" width="11" height="11" rx="2" fill="#21262d"><title>2026-01-30: 0 activity</title></rect><rect x="348" y="176" width="11" height="11" rx="2" fill="#21262d"><title>2026-01-31: 0 activity</title></rect><rect x="362" y="92" width="11" height="11" rx="2" fill="#21262d"><title>2026-02-01: 0 activity</title></rect><rect x="362" y="106" width="11" height="11" rx="2" fill="#21262d"><title>2026-02-02: 0 activity</title></rect><rect x="362" y="120" width="11" height="11" rx="2" fill="#21262d"><title>2026-02-03: 0 activity</title></rect><rect x="362" y="134" width="11" height="11" rx="2" fill="#21262d"><title>2026-02-04: 0 activity</title></rect><rect x="362" y="148" width="11" height="11" rx="2" fill="#21262d"><title>2026-02-05: 0 activity</title></rect><rect x="362" y="162" width="11" height="11" rx="2" fill="#21262d"><title>2026-02-06: 0 activity</title></rect><rect x="362" y="176" width="11" height="11" rx="2" fill="#21262d"><title>2026-02-07: 0 activity</title></rect><rect x="376" y="92" width="11" height="11" rx="2" fill="#21262d"><title>2026-02-08: 0 activity</title></rect><rect x="376" y="106" width="11" height="11" rx="2" fill="#21262d"><title>2026-02-09: 0 activity</title></rect><rect x="376" y="120" width="11" height="11" rx="2" fill="#21262d"><title>2026-02-10: 0 activity</title></rect><rect x="376" y="134" width="11" height="11" rx="2" fill="#21262d"><title>2026-02-11: 0 activity</title></rect><rect x="376" y="148" width="11" height="11" rx="2" fill="#21262d"><title>2026-02-12: 0 activity</title></rect><rect x="376" y="162" width="11" height="11" rx="2" fill="#21262d"><title>2026-02-13: 0 activity</title></rect><rect x="376" y="176" width="11" height="11" rx="2" fill="#21262d"><title>2026-02-14: 0 activity</title></rect><rect x="390" y="92" width="11" height="11" rx="2" fill="#21262d"><title>2026-02-15: 0 activity</title></rect><rect x="390" y="106" width="11" height="11" rx="2" fill="#21262d"><title>2026-02-16: 0 activity</title></rect><rect x="390" y="120" width="11" height="11" rx="2" fill="#21262d"><title>2026-02-17: 0 activity</title></rect><rect x="390" y="134" width="11" height="11" rx="2" fill="#21262d"><title>2026-02-18: 0 activity</title></rect><rect x="390" y="148" width="11" height="11" rx="2" fill="#21262d"><title>2026-02-19: 0 activity</title></rect><rect x="390" y="162" width="11" height="11" rx="2" fill="#21262d"><title>2026-02-20: 0 activity</title></rect><rect x="390" y="176" width="11" height="11" rx="2" fill="#21262d"><title>2026-02-21: 0 activity</title></rect><rect x="404" y="92" width="11" height="11" rx="2" fill="#21262d"><title>2026-02-22: 0 activity</title></rect><rect x="404" y="106" width="11" height="11" rx="2" fill="#21262d"><title>2026-02-23: 0 activity</title></rect><rect x="404" y="120" width="11" height="11" rx="2" fill="#21262d"><title>2026-02-24: 0 activity</title></rect><rect x="404" y="134" width="11" height="11" rx="2" fill="#21262d"><title>2026-02-25: 0 activity</title></rect><rect x="404" y="148" width="11" height="11" rx="2" fill="#21262d"><title>2026-02-26: 0 activity</title></rect><rect x="404" y="162" width="11" height="11" rx="2" fill="#21262d"><title>2026-02-27: 0 activity</title></rect><rect x="404" y="176" width="11" height="11" rx="2" fill="#21262d"><title>2026-02-28: 0 activity</title></rect><rect x="418" y="92" width="11" height="11" rx="2" fill="#21262d"><title>2026-03-01: 0 activity</title></rect><rect x="418" y="106" width="11" height="11" rx="2" fill="#21262d"><title>2026-03-02: 0 activity</title></rect><rect x="418" y="120" width="11" height="11" rx="2" fill="#21262d"><title>2026-03-03: 0 activity</title></rect><rect x="418" y="134" width="11" height="11" rx="2" fill="#21262d"><title>2026-03-04: 0 activity</title></rect><rect x="418" y="148" width="11" height="11" rx="2" fill="#21262d"><title>2026-03-05: 0 activity</title></rect><rect x="418" y="162" width="11" height="11" rx="2" fill="#21262d"><title>2026-03-06: 0 activity</title></rect><rect x="418" y="176" width="11" height="11" rx="2" fill="#21262d"><title>2026-03-07: 0 activity</title></rect><rect x="432" y="92" width="11" height="11" rx="2" fill="#21262d"><title>2026-03-08: 0 activity</title></rect><rect x="432" y="106" width="11" height="11" rx="2" fill="#21262d"><title>2026-03-09: 0 activity</title></rect><rect x="432" y="120" width="11" height="11" rx="2" fill="#21262d"><title>2026-03-10: 0 activity</title></rect><rect x="432" y="134" width="11" height="11" rx="2" fill="#21262d"><title>2026-03-11: 0 activity</title></rect><rect x="432" y="148" width="11" height="11" rx="2" fill="#21262d"><title>2026-03-12: 0 activity</title></rect><rect x="432" y="162" width="11" height="11" rx="2" fill="#21262d"><title>2026-03-13: 0 activity</title></rect><rect x="432" y="176" width="11" height="11" rx="2" fill="#21262d"><title>2026-03-14: 0 activity</title></rect><rect x="446" y="92" width="11" height="11" rx="2" fill="#21262d"><title>2026-03-15: 0 activity</title></rect><rect x="446" y="106" width="11" height="11" rx="2" fill="#21262d"><title>2026-03-16: 0 activity</title></rect><rect x="446" y="120" width="11" height="11" rx="2" fill="#21262d"><title>2026-03-17: 0 activity</title></rect><rect x="446" y="134" width="11" height="11" rx="2" fill="#21262d"><title>2026-03-18: 0 activity</title></rect><rect x="446" y="148" width="11" height="11" rx="2" fill="#21262d"><title>2026-03-19: 0 activity</title></rect><rect x="446" y="162" width="11" height="11" rx="2" fill="#21262d"><title>2026-03-20: 0 activity</title></rect><rect x="446" y="176" width="11" height="11" rx="2" fill="#21262d"><title>2026-03-21: 0 activity</title></rect><rect x="460" y="92" width="11" height="11" rx="2" fill="#21262d"><title>2026-03-22: 0 activity</title></rect><rect x="460" y="106" width="11" height="11" rx="2" fill="#21262d"><title>2026-03-23: 0 activity</title></rect><rect x="460" y="120" width="11" height="11" rx="2" fill="#21262d"><title>2026-03-24: 0 activity</title></rect><rect x="460" y="134" width="11" height="11" rx="2" fill="#21262d"><title>2026-03-25: 0 activity</title></rect><rect x="460" y="148" width="11" height="11" rx="2" fill="#21262d"><title>2026-03-26: 0 activity</title></rect><rect x="460" y="162" width="11" height="11" rx="2" fill="#21262d"><title>2026-03-27: 0 activity</title></rect><rect x="460" y="176" width="11" height="11" rx="2" fill="#21262d"><title>2026-03-28: 0 activity</title></rect><rect x="474" y="92" width="11" height="11" rx="2" fill="#21262d"><title>2026-03-29: 0 activity</title></rect><rect x="474" y="106" width="11" height="11" rx="2" fill="#21262d"><title>2026-03-30: 0 activity</title></rect><rect x="474" y="120" width="11" height="11" rx="2" fill="#21262d"><title>2026-03-31: 0 activity</title></rect><rect x="474" y="134" width="11" height="11" rx="2" fill="#21262d"><title>2026-04-01: 0 activity</title></rect><rect x="474" y="148" width="11" height="11" rx="2" fill="#21262d"><title>2026-04-02: 0 activity</title></rect><rect x="474" y="162" width="11" height="11" rx="2" fill="#21262d"><title>2026-04-03: 0 activity</title></rect><rect x="474" y="176" width="11" height="11" rx="2" fill="#21262d"><title>2026-04-04: 0 activity</title></rect><rect x="488" y="92" width="11" height="11" rx="2" fill="#21262d"><title>2026-04-05: 0 activity</title></rect><rect x="488" y="106" width="11" height="11" rx="2" fill="#21262d"><title>2026-04-06: 0 activity</title></rect><rect x="488" y="120" width="11" height="11" rx="2" fill="#21262d"><title>2026-04-07: 0 activity</title></rect><rect x="488" y="134" width="11" height="11" rx="2" fill="#21262d"><title>2026-04-08: 0 activity</title></rect><rect x="488" y="148" width="11" height="11" rx="2" fill="#21262d"><title>2026-04-09: 0 activity</title></rect><rect x="488" y="162" width="11" height="11" rx="2" fill="#21262d"><title>2026-04-10: 0 activity</title></rect><rect x="488" y="176" width="11" height="11" rx="2" fill="#21262d"><title>2026-04-11: 0 activity</title></rect><rect x="502" y="92" width="11" height="11" rx="2" fill="#21262d"><title>2026-04-12: 0 activity</title></rect><rect x="502" y="106" width="11" height="11" rx="2" fill="#21262d"><title>2026-04-13: 0 activity</title></rect><rect x="502" y="120" width="11" height="11" rx="2" fill="#21262d"><title>2026-04-14: 0 activity</title></rect><rect x="502" y="134" width="11" height="11" rx="2" fill="#0e4429"><title>2026-04-15: 2 activity</title></rect><rect x="502" y="148" width="11" height="11" rx="2" fill="#21262d"><title>2026-04-16: 0 activity</title></rect><rect x="502" y="162" width="11" height="11" rx="2" fill="#21262d"><title>2026-04-17: 0 activity</title></rect><rect x="502" y="176" width="11" height="11" rx="2" fill="#21262d"><title>2026-04-18: 0 activity</title></rect><rect x="516" y="92" width="11" height="11" rx="2" fill="#21262d"><title>2026-04-19: 0 activity</title></rect><rect x="516" y="106" width="11" height="11" rx="2" fill="#21262d"><title>2026-04-20: 0 activity</title></rect><rect x="516" y="120" width="11" height="11" rx="2" fill="#0e4429"><title>2026-04-21: 2 activity</title></rect><rect x="516" y="134" width="11" height="11" rx="2" fill="#006d32"><title>2026-04-22: 3 activity</title></rect><rect x="516" y="148" width="11" height="11" rx="2" fill="#21262d"><title>2026-04-23: 0 activity</title></rect><rect x="516" y="162" width="11" height="11" rx="2" fill="#21262d"><title>2026-04-24: 0 activity</title></rect><rect x="516" y="176" width="11" height="11" rx="2" fill="#21262d"><title>2026-04-25: 0 activity</title></rect><rect x="530" y="92" width="11" height="11" rx="2" fill="#21262d"><title>2026-04-26: 0 activity</title></rect><rect x="530" y="106" width="11" height="11" rx="2" fill="#21262d"><title>2026-04-27: 0 activity</title></rect><rect x="530" y="120" width="11" height="11" rx="2" fill="#21262d"><title>2026-04-28: 0 activity</title></rect><rect x="530" y="134" width="11" height="11" rx="2" fill="#21262d"><title>2026-04-29: 0 activity</title></rect><rect x="530" y="148" width="11" height="11" rx="2" fill="#21262d"><title>2026-04-30: 0 activity</title></rect><rect x="530" y="162" width="11" height="11" rx="2" fill="#21262d"><title>2026-05-01: 0 activity</title></rect><rect x="530" y="176" width="11" height="11" rx="2" fill="#21262d"><title>2026-05-02: 0 activity</title></rect><rect x="544" y="92" width="11" height="11" rx="2" fill="#21262d"><title>2026-05-03: 0 activity</title></rect><rect x="544" y="106" width="11" height="11" rx="2" fill="#21262d"><title>2026-05-04: 0 activity</title></rect><rect x="544" y="120" width="11" height="11" rx="2" fill="#21262d"><title>2026-05-05: 0 activity</title></rect><rect x="544" y="134" width="11" height="11" rx="2" fill="#21262d"><title>2026-05-06: 0 activity</title></rect><rect x="544" y="148" width="11" height="11" rx="2" fill="#21262d"><title>2026-05-07: 0 activity</title></rect><rect x="544" y="162" width="11" height="11" rx="2" fill="#21262d"><title>2026-05-08: 0 activity</title></rect><rect x="544" y="176" width="11" height="11" rx="2" fill="#21262d"><title>2026-05-09: 0 activity</title></rect><rect x="558" y="92" width="11" height="11" rx="2" fill="#21262d"><title>2026-05-10: 0 activity</title></rect><rect x="558" y="106" width="11" height="11" rx="2" fill="#21262d"><title>2026-05-11: 0 activity</title></rect><rect x="558" y="120" width="11" height="11" rx="2" fill="#006d32"><title>2026-05-12: 3 activity</title></rect><rect x="558" y="134" width="11" height="11" rx="2" fill="#0e4429"><title>2026-05-13: 1 activity</title></rect><rect x="558" y="148" width="11" height="11" rx="2" fill="#21262d"><title>2026-05-14: 0 activity</title></rect><rect x="558" y="162" width="11" height="11" rx="2" fill="#21262d"><title>2026-05-15: 0 activity</title></rect><rect x="558" y="176" width="11" height="11" rx="2" fill="#21262d"><title>2026-05-16: 0 activity</title></rect><rect x="572" y="92" width="11" height="11" rx="2" fill="#21262d"><title>2026-05-17: 0 activity</title></rect><rect x="572" y="106" width="11" height="11" rx="2" fill="#21262d"><title>2026-05-18: 0 activity</title></rect><rect x="572" y="120" width="11" height="11" rx="2" fill="#21262d"><title>2026-05-19: 0 activity</title></rect><rect x="572" y="134" width="11" height="11" rx="2" fill="#006d32"><title>2026-05-20: 4 activity</title></rect><rect x="572" y="148" width="11" height="11" rx="2" fill="#21262d"><title>2026-05-21: 0 activity</title></rect><rect x="572" y="162" width="11" height="11" rx="2" fill="#21262d"><title>2026-05-22: 0 activity</title></rect><rect x="572" y="176" width="11" height="11" rx="2" fill="#21262d"><title>2026-05-23: 0 activity</title></rect><rect x="586" y="92" width="11" height="11" rx="2" fill="#21262d"><title>2026-05-24: 0 activity</title></rect><rect x="586" y="106" width="11" height="11" rx="2" fill="#21262d"><title>2026-05-25: 0 activity</title></rect><rect x="586" y="120" width="11" height="11" rx="2" fill="#0e4429"><title>2026-05-26: 2 activity</title></rect><rect x="586" y="134" width="11" height="11" rx="2" fill="#21262d"><title>2026-05-27: 0 activity</title></rect><rect x="586" y="148" width="11" height="11" rx="2" fill="#21262d"><title>2026-05-28: 0 activity</title></rect><rect x="586" y="162" width="11" height="11" rx="2" fill="#21262d"><title>2026-05-29: 0 activity</title></rect><rect x="586" y="176" width="11" height="11" rx="2" fill="#21262d"><title>2026-05-30: 0 activity</title></rect><rect x="600" y="92" width="11" height="11" rx="2" fill="#21262d"><title>2026-05-31: 0 activity</title></rect><rect x="600" y="106" width="11" height="11" rx="2" fill="#21262d"><title>2026-06-01: 0 activity</title></rect><rect x="600" y="120" width="11" height="11" rx="2" fill="#21262d"><title>2026-06-02: 0 activity</title></rect><rect x="600" y="134" width="11" height="11" rx="2" fill="#0e4429"><title>2026-06-03: 1 activity</title></rect><rect x="600" y="148" width="11" height="11" rx="2" fill="#21262d"><title>2026-06-04: 0 activity</title></rect><rect x="600" y="162" width="11" height="11" rx="2" fill="#21262d"><title>2026-06-05: 0 activity</title></rect><rect x="600" y="176" width="11" height="11" rx="2" fill="#21262d"><title>2026-06-06: 0 activity</title></rect><rect x="614" y="92" width="11" height="11" rx="2" fill="#0e4429"><title>2026-06-07: 1 activity</title></rect><rect x="614" y="106" width="11" height="11" rx="2" fill="#21262d"><title>2026-06-08: 0 activity</title></rect><rect x="614" y="120" width="11" height="11" rx="2" fill="#21262d"><title>2026-06-09: 0 activity</title></rect><rect x="614" y="134" width="11" height="11" rx="2" fill="#21262d"><title>2026-06-10: 0 activity</title></rect><rect x="614" y="148" width="11" height="11" rx="2" fill="#0e4429"><title>2026-06-11: 2 activity</title></rect><rect x="614" y="162" width="11" height="11" rx="2" fill="#21262d"><title>2026-06-12: 0 activity</title></rect><rect x="614" y="176" width="11" height="11" rx="2" fill="#21262d"><title>2026-06-13: 0 activity</title></rect><rect x="628" y="92" width="11" height="11" rx="2" fill="#21262d"><title>2026-06-14: 0 activity</title></rect><rect x="628" y="106" width="11" height="11" rx="2" fill="#21262d"><title>2026-06-15: 0 activity</title></rect><rect x="628" y="120" width="11" height="11" rx="2" fill="#21262d"><title>2026-06-16: 0 activity</title></rect><rect x="628" y="134" width="11" height="11" rx="2" fill="#006d32"><title>2026-06-17: 3 activity</title></rect><rect x="628" y="148" width="11" height="11" rx="2" fill="#21262d"><title>2026-06-18: 0 activity</title></rect><rect x="628" y="162" width="11" height="11" rx="2" fill="#21262d"><title>2026-06-19: 0 activity</title></rect><rect x="628" y="176" width="11" height="11" rx="2" fill="#21262d"><title>2026-06-20: 0 activity</title></rect><rect x="642" y="92" width="11" height="11" rx="2" fill="#21262d"><title>2026-06-21: 0 activity</title></rect><rect x="642" y="106" width="11" height="11" rx="2" fill="#21262d"><title>2026-06-22: 0 activity</title></rect><rect x="642" y="120" width="11" height="11" rx="2" fill="#0e4429"><title>2026-06-23: 2 activity</title></rect><rect x="642" y="134" width="11" height="11" rx="2" fill="#21262d"><title>2026-06-24: 0 activity</title></rect><rect x="642" y="148" width="11" height="11" rx="2" fill="#21262d"><title>2026-06-25: 0 activity</title></rect><rect x="642" y="162" width="11" height="11" rx="2" fill="#0e4429"><title>2026-06-26: 2 activity</title></rect><rect x="642" y="176" width="11" height="11" rx="2" fill="#21262d"><title>2026-06-27: 0 activity</title></rect><rect x="656" y="92" width="11" height="11" rx="2" fill="#21262d"><title>2026-06-28: 0 activity</title></rect><rect x="656" y="106" width="11" height="11" rx="2" fill="#21262d"><title>2026-06-29: 0 activity</title></rect><rect x="656" y="120" width="11" height="11" rx="2" fill="#0e4429"><title>2026-06-30: 2 activity</title></rect><rect x="656" y="134" width="11" height="11" rx="2" fill="#0e4429"><title>2026-07-01: 2 activity</title></rect><rect x="656" y="148" width="11" height="11" rx="2" fill="#21262d"><title>2026-07-02: 0 activity</title></rect><rect x="656" y="162" width="11" height="11" rx="2" fill="#21262d"><title>2026-07-03: 0 activity</title></rect><rect x="656" y="176" width="11" height="11" rx="2" fill="#21262d"><title>2026-07-04: 0 activity</title></rect><rect x="670" y="92" width="11" height="11" rx="2" fill="#21262d"><title>2026-07-05: 0 activity</title></rect><rect x="670" y="106" width="11" height="11" rx="2" fill="#21262d"><title>2026-07-06: 0 activity</title></rect><rect x="670" y="120" width="11" height="11" rx="2" fill="#21262d"><title>2026-07-07: 0 activity</title></rect><rect x="670" y="134" width="11" height="11" rx="2" fill="#006d32"><title>2026-07-08: 4 activity</title></rect><rect x="670" y="148" width="11" height="11" rx="2" fill="#006d32"><title>2026-07-09: 4 activity</title></rect><rect x="670" y="162" width="11" height="11" rx="2" fill="#21262d"><title>2026-07-10: 0 activity</title></rect><rect x="670" y="176" width="11" height="11" rx="2" fill="#21262d"><title>2026-07-11: 0 activity</title></rect><rect x="684" y="92" width="11" height="11" rx="2" fill="#21262d"><title>2026-07-12: 0 activity</title></rect><rect x="684" y="106" width="11" height="11" rx="2" fill="#21262d"><title>2026-07-13: 0 activity</title></rect><rect x="684" y="120" width="11" height="11" rx="2" fill="#21262d"><title>2026-07-14: 0 activity</title></rect><rect x="684" y="134" width="11" height="11" rx="2" fill="#0e4429"><title>2026-07-15: 2 activity</title></rect><rect x="684" y="148" width="11" height="11" rx="2" fill="#21262d"><title>2026-07-16: 0 activity</title></rect><rect x="684" y="162" width="11" height="11" rx="2" fill="#21262d"><title>2026-07-17: 0 activity</title></rect><rect x="684" y="176" width="11" height="11" rx="2" fill="#0e4429"><title>2026-07-18: 1 activity</title></rect><rect x="698" y="92" width="11" height="11" rx="2" fill="#0e4429"><title>2026-07-19: 1 activity</title></rect><rect x="698" y="106" width="11" height="11" rx="2" fill="#21262d"><title>2026-07-20: 0 activity</title></rect><rect x="698" y="120" width="11" height="11" rx="2" fill="#21262d"><title>2026-07-21: 0 activity</title></rect><rect x="698" y="134" width="11" height="11" rx="2" fill="#21262d"><title>2026-07-22: 0 activity</title></rect><rect x="698" y="148" width="11" height="11" rx="2" fill="#21262d"><title>2026-07-23: 0 activity</title></rect><rect x="698" y="162" width="11" height="11" rx="2" fill="#21262d"><title>2026-07-24: 0 activity</title></rect><rect x="698" y="176" width="11" height="11" rx="2" fill="#21262d"><title>2026-07-25: 0 activity</title></rect><rect x="712" y="92" width="11" height="11" rx="2" fill="#21262d"><title>2026-07-26: 0 activity</title></rect><rect x="712" y="106" width="11" height="11" rx="2" fill="#0e4429"><title>2026-07-27: 2 activity</title></rect><rect x="712" y="120" width="11" height="11" rx="2" fill="#0e4429"><title>2026-07-28: 2 activity</title></rect><rect x="712" y="134" width="11" height="11" rx="2" fill="#006d32"><title>2026-07-29: 3 activity</title></rect><rect x="712" y="148" width="11" height="11" rx="2" fill="#39d353"><title>2026-07-30: 12 activity</title></rect><rect x="712" y="162" width="11" height="11" rx="2" fill="#006d32"><title>2026-07-31: 3 activity</title></rect><rect x="712" y="176" width="11" height="11" rx="2" fill="#0e4429"><title>2026-08-01: 1 activity</title></rect><rect x="726" y="92" width="11" height="11" rx="2" fill="#26a641"><title>2026-08-02: 6 activity</title></rect><rect x="726" y="106" width="11" height="11" rx="2" fill="#26a641"><title>2026-08-03: 7 activity</title></rect><rect x="726" y="120" width="11" height="11" rx="2" fill="#006d32"><title>2026-08-04: 5 activity</title></rect><rect x="726" y="134" width="11" height="11" rx="2" fill="#006d32"><title>2026-08-05: 3 activity</title></rect><rect x="726" y="148" width="11" height="11" rx="2" fill="#26a641"><title>2026-08-06: 7 activity</title></rect><rect x="726" y="162" width="11" height="11" rx="2" fill="#006d32"><title>2026-08-07: 3 activity</title></rect><rect x="726" y="176" width="11" height="11" rx="2" fill="#21262d"><title>2026-08-08: 0 activity</title></rect><rect x="740" y="92" width="11" height="11" rx="2" fill="#0e4429"><title>2026-08-09: 2 activity</title></rect><rect x="740" y="106" width="11" height="11" rx="2" fill="#006d32"><title>2026-08-10: 3 activity</title></rect><rect x="740" y="120" width="11" height="11" rx="2" fill="#006d32"><title>2026-08-11: 4 activity</title></rect><rect x="740" y="134" width="11" height="11" rx="2" fill="#21262d"><title>2026-08-12: 0 activity</title></rect><rect x="740" y="148" width="11" height="11" rx="2" fill="#0e4429"><title>2026-08-13: 2 activity</title></rect><rect x="740" y="162" width="11" height="11" rx="2" fill="#21262d"><title>2026-08-14: 0 activity</title></rect><rect x="740" y="176" width="11" height="11" rx="2" fill="#21262d"><title>2026-08-15: 0 activity</title></rect><rect x="754" y="92" width="11" height="11" rx="2" fill="#21262d"><title>2026-08-16: 0 activity</title></rect><rect x="754" y="106" width="11" height="11" rx="2" fill="#0e4429"><title>2026-08-17: 2 activity</title></rect><rect x="754" y="120" width="11" height="11" rx="2" fill="#0e4429"><title>2026-08-18: 2 activity</title></rect><rect x="754" y="134" width="11" height="11" rx="2" fill="#006d32"><title>2026-08-19: 5 activity</title></rect><rect x="754" y="148" width="11" height="11" rx="2" fill="#0e4429"><title>2026-08-20: 1 activity</title></rect><rect x="754" y="162" width="11" height="11" rx="2" fill="#21262d"><title>2026-08-21: 0 activity</title></rect><rect x="754" y="176" width="11" height="11" rx="2" fill="#0e4429"><title>2026-08-22: 1 activity</title></rect><rect x="768" y="92" width="11" height="11" rx="2" fill="#006d32"><title>2026-08-23: 5 activity</title></rect><rect x="768" y="106" width="11" height="11" rx="2" fill="#21262d"><title>2026-08-24: 0 activity</title></rect><rect x="768" y="120" width="11" height="11" rx="2" fill="#21262d"><title>2026-08-25: 0 activity</title></rect><rect x="768" y="134" width="11" height="11" rx="2" fill="#21262d"><title>2026-08-26: 0 activity</title></rect><rect x="768" y="148" width="11" height="11" rx="2" fill="#21262d"><title>2026-08-27: 0 activity</title></rect><rect x="768" y="162" width="11" height="11" rx="2" fill="#21262d"><title>2026-08-28: 0 activity</title></rect><rect x="768" y="176" width="11" height="11" rx="2" fill="#21262d"><title>2026-08-29: 0 activity</title></rect><rect x="782" y="92" width="11" height="11" rx="2" fill="#21262d"><title>2026-08-30: 0 activity</title></rect><rect x="782" y="106" width="11" height="11" rx="2" fill="#21262d"><title>2026-08-31: 0 activity</title></rect><rect x="782" y="120" width="11" height="11" rx="2" fill="#21262d"><title>2026-09-01: 0 activity</title></rect><rect x="782" y="134" width="11" height="11" rx="2" fill="#21262d"><title>2026-09-02: 0 activity</title></rect><rect x="782" y="148" width="11" height="11" rx="2" fill="#21262d"><title>2026-09-03: 0 activity</title></rect><rect x="782" y="162" width="11" height="11" rx="2" fill="#0e4429"><title>2026-09-04: 2 activity</title></rect><rect x="782" y="176" width="11" height="11" rx="2" fill="#0e4429"><title>2026-09-05: 1 activity</title></rect><text x="705" y="224" class="muted">Less</text><rect x="747" y="214" width="11" height="11" rx="2" fill="#21262d"/><rect x="763" y="214" width="11" height="11" rx="2" fill="#0e4429"/><rect x="779" y="214" width="11" height="11" rx="2" fill="#006d32"/><rect x="795" y="214" width="11" height="11" rx="2" fill="#26a641"/><rect x="811" y="214" width="11" height="11" rx="2" fill="#39d353"/><text x="835" y="224" class="muted">More</text>
</svg>